<?xml version="1.0" encoding="iso-8859-1"?>
<!-- Generator: Adobe Illustrator 19.0.0, SVG Export Plug-In . SVG Version: 6.00 Build 0)  -->
<svg version="1.1" id="Layer_1" xmlns="http://www.w3.org/2000/svg" xmlns:xlink="http://www.w3.org/1999/xlink" x="0px" y="0px"
	 viewBox="0 0 512 512" style="enable-background:new 0 0 512 512;" xml:space="preserve">
<g>
	<g>
		<path d="M469.333,192H448v-42.667c0-23.531-19.135-42.667-42.667-42.667H345.75c-12.573,0-24.396,4.896-33.292,13.792
			c-4.865,4.865-11.333,7.542-18.208,7.542h-76.5c-6.875,0-13.344-2.677-18.208-7.542c-8.896-8.896-20.719-13.792-33.292-13.792
			h-59.583C83.135,106.667,64,125.802,64,149.333V192H42.667C19.135,192,0,211.135,0,234.667v160
			c0,5.896,4.771,10.667,10.667,10.667c5.896,0,10.667-4.771,10.667-10.667v-160c0-11.76,9.573-21.333,21.333-21.333H64V256
			c0,23.531,19.135,42.667,42.667,42.667h59.583c12.573,0,24.396-4.896,33.292-13.792c4.865-4.865,11.333-7.542,18.208-7.542h76.5
			c6.875,0,13.344,2.677,18.208,7.542c8.896,8.896,20.719,13.792,33.292,13.792h59.583C428.865,298.667,448,279.531,448,256v-42.667
			h21.333c11.76,0,21.333,9.573,21.333,21.333v160c0,5.896,4.771,10.667,10.667,10.667c5.896,0,10.667-4.771,10.667-10.667v-160
			C512,211.135,492.865,192,469.333,192z M128,277.333h-21.333c-11.76,0-21.333-9.573-21.333-21.333V149.333
			c0-11.76,9.573-21.333,21.333-21.333H128V277.333z M192,263.694c-2.682,1.76-5.22,3.776-7.542,6.098
			c-4.865,4.865-11.333,7.542-18.208,7.542h-16.917V128h16.917c6.875,0,13.344,2.677,18.208,7.542
			c2.322,2.322,4.859,4.337,7.542,6.098V263.694z M256,256h-38.25c-1.5,0-2.941,0.293-4.417,0.431V148.902
			c1.475,0.138,2.917,0.431,4.417,0.431H256V256z M426.667,256c0,11.76-9.573,21.333-21.333,21.333H345.75
			c-6.875,0-13.344-2.677-18.208-7.542C318.646,260.896,306.823,256,294.25,256h-16.917V149.333h16.917
			c12.573,0,24.396-4.896,33.292-13.792c4.865-4.865,11.333-7.542,18.208-7.542h59.583c11.76,0,21.333,9.573,21.333,21.333V256z"/>
	</g>
</g>
<g>
</g>
<g>
</g>
<g>
</g>
<g>
</g>
<g>
</g>
<g>
</g>
<g>
</g>
<g>
</g>
<g>
</g>
<g>
</g>
<g>
</g>
<g>
</g>
<g>
</g>
<g>
</g>
<g>
</g>
</svg>
