<svg height="512" viewBox="0 0 64 64" width="512" xmlns="http://www.w3.org/2000/svg"><path d="m45 1h-26a5.006 5.006 0 0 0 -5 5v52a5.006 5.006 0 0 0 5 5h26a5.006 5.006 0 0 0 5-5v-52a5.006 5.006 0 0 0 -5-5zm-7.618 2-1 2h-8.764l-1-2zm10.618 55a3 3 0 0 1 -3 3h-26a3 3 0 0 1 -3-3v-52a3 3 0 0 1 3-3h5.382l1.723 3.447a1 1 0 0 0 .895.553h10a1 1 0 0 0 .9-.553l1.718-3.447h5.382a3 3 0 0 1 3 3z"/><path d="m26 58h-8a1 1 0 0 0 0 2h8a1 1 0 0 0 0-2z"/><path d="m30 58h-1a1 1 0 0 0 0 2h1a1 1 0 0 0 0-2z"/><path d="m35 34.679v-19.679a3.015 3.015 0 0 0 -3-3 3 3 0 0 0 -3 3v19.679a7 7 0 1 0 6 0zm-4-19.679a1 1 0 0 1 1-1 .974.974 0 0 1 .712.306.957.957 0 0 1 .288.694v13h-2zm1 31a5 5 0 0 1 -1.671-9.706 1 1 0 0 0 .671-.944v-5.35h2v5.35a1 1 0 0 0 .671.944 5 5 0 0 1 -1.671 9.706z"/><path d="m32 38a3 3 0 1 0 3 3 3 3 0 0 0 -3-3zm0 4a1 1 0 1 1 1-1 1 1 0 0 1 -1 1z"/><path d="m38 15h-1a1 1 0 0 0 0 2h1a1 1 0 0 0 0-2z"/><path d="m38 19h-1a1 1 0 0 0 0 2h1a1 1 0 0 0 0-2z"/><path d="m38 23h-1a1 1 0 0 0 0 2h1a1 1 0 0 0 0-2z"/><path d="m38 27h-1a1 1 0 0 0 0 2h1a1 1 0 0 0 0-2z"/><path d="m38 31h-1a1 1 0 0 0 0 2h1a1 1 0 0 0 0-2z"/></svg>